<svg width="20" height="20" viewBox="0 0 20 20" fill="none" xmlns="http://www.w3.org/2000/svg">
<g clip-path="url(#clip0_426_29)">
<path d="M19.4752 15.4293L15.4271 12.7297C14.9134 12.3899 14.2248 12.5017 13.845 12.9867L12.6658 14.5028C12.5143 14.7026 12.2388 14.7606 12.0196 14.6388L11.7953 14.5151C11.0517 14.1098 10.1266 13.6053 8.26251 11.7406C6.39845 9.87583 5.89286 8.94995 5.48757 8.20776L5.36458 7.98345C5.24112 7.76427 5.29799 7.48763 5.49788 7.33488L7.01297 6.15607C7.49774 5.77624 7.60972 5.08783 7.27027 4.57396L4.57067 0.52589C4.2228 0.00260799 3.52485 -0.154478 2.9863 0.169263L1.29355 1.1861C0.761671 1.49879 0.371456 2.0052 0.204723 2.59921C-0.404835 4.82021 0.0537292 8.65331 5.70023 14.3005C10.1919 18.7918 13.5357 19.9996 15.8341 19.9996C16.363 20.0019 16.8899 19.9331 17.4005 19.795C17.9947 19.6285 18.5011 19.2382 18.8136 18.7062L19.8315 17.0145C20.1557 16.4758 19.9987 15.7774 19.4752 15.4293ZM19.2572 16.6725L18.2417 18.3652C18.0173 18.7492 17.653 19.0316 17.2252 19.1531C15.1748 19.716 11.5927 19.2498 6.1718 13.8289C0.750931 8.40804 0.284711 4.82623 0.847635 2.77556C0.969335 2.34718 1.25203 1.98243 1.6365 1.7577L3.32926 0.742186C3.56293 0.601582 3.86586 0.669735 4.01681 0.896811L5.48327 3.09848L6.71411 4.94453C6.86151 5.16743 6.81308 5.46617 6.6028 5.63111L5.08736 6.80992C4.62617 7.16256 4.49448 7.80063 4.77842 8.30704L4.89875 8.52568C5.3247 9.30689 5.85427 10.2787 7.78766 12.2118C9.72104 14.1448 10.6926 14.6745 11.4734 15.1004L11.6924 15.221C12.1988 15.5049 12.8369 15.3733 13.1895 14.9121L14.3683 13.3966C14.5333 13.1865 14.8319 13.1381 15.0549 13.2853L19.1026 15.9849C19.3298 16.1358 19.398 16.4388 19.2572 16.6725Z" fill="white"/>
<path d="M11.3327 3.33505C14.4604 3.33853 16.995 5.87319 16.9985 9.00089C16.9985 9.18497 17.1477 9.33416 17.3318 9.33416C17.5158 9.33416 17.665 9.18497 17.665 9.00089C17.6612 5.5052 14.8284 2.67234 11.3327 2.66851C11.1486 2.66851 10.9994 2.81771 10.9994 3.00178C10.9994 3.18586 11.1486 3.33505 11.3327 3.33505Z" fill="white"/>
<path d="M11.3327 5.33475C13.3564 5.33714 14.9964 6.97713 14.9988 9.00089C14.9988 9.18497 15.148 9.33416 15.3321 9.33416C15.5161 9.33416 15.6653 9.18497 15.6653 9.00089C15.6626 6.60914 13.7244 4.67095 11.3327 4.66821C11.1486 4.66821 10.9994 4.81741 10.9994 5.00148C10.9994 5.18556 11.1486 5.33475 11.3327 5.33475Z" fill="white"/>
<path d="M11.3327 7.33446C12.2525 7.33555 12.998 8.08099 12.9991 9.00089C12.9991 9.18496 13.1483 9.33416 13.3324 9.33416C13.5164 9.33416 13.6656 9.18496 13.6656 9.00089C13.6642 7.71303 12.6205 6.66936 11.3327 6.66792C11.1486 6.66792 10.9994 6.81711 10.9994 7.00119C10.9994 7.18526 11.1486 7.33446 11.3327 7.33446Z" fill="white"/>
</g>
<defs>
<clipPath id="clip0_426_29">
<rect width="20" height="20" fill="white"/>
</clipPath>
</defs>
</svg>
