<svg width="48" height="48" viewBox="0 0 48 48" fill="none" xmlns="http://www.w3.org/2000/svg">
<g clip-path="url(#clip0_472_18)">
<path d="M11.1427 29.1521L9.5068 35.2592L3.52754 35.3857C1.74062 32.0713 0.727051 28.2793 0.727051 24.2496C0.727051 20.353 1.67471 16.6783 3.35451 13.4427H3.3558L8.67901 14.4187L11.0109 19.71C10.5228 21.1328 10.2568 22.6603 10.2568 24.2496C10.257 25.9746 10.5695 27.6273 11.1427 29.1521Z" fill="#FBBB00"/>
<path d="M47.3143 19.8599C47.5842 21.2814 47.7249 22.7494 47.7249 24.2497C47.7249 25.9321 47.548 27.5732 47.211 29.1561C46.0671 34.5428 43.0781 39.2464 38.9374 42.575L38.9361 42.5737L32.2313 42.2316L31.2823 36.3078C34.0299 34.6964 36.1771 32.1748 37.3081 29.1561H24.7427V19.8599H37.4914H47.3143Z" fill="#518EF8"/>
<path d="M38.9359 42.5736L38.9372 42.5749C34.9102 45.8118 29.7946 47.7485 24.2259 47.7485C15.277 47.7485 7.49659 42.7467 3.52759 35.3858L11.1428 29.1522C13.1272 34.4485 18.2363 38.2186 24.2259 38.2186C26.8004 38.2186 29.2123 37.5227 31.282 36.3077L38.9359 42.5736Z" fill="#28B446"/>
<path d="M39.2251 6.16072L31.6125 12.3931C29.4705 11.0542 26.9385 10.2807 24.2258 10.2807C18.1006 10.2807 12.896 14.2238 11.011 19.71L3.35578 13.4428H3.35449C7.26539 5.90251 15.1439 0.750854 24.2258 0.750854C29.9275 0.750854 35.1554 2.78185 39.2251 6.16072Z" fill="#F14336"/>
</g>
<defs>
<clipPath id="clip0_472_18">
<rect width="46.9976" height="46.9976" fill="white" transform="translate(0.727051 0.750854)"/>
</clipPath>
</defs>
</svg>
