<svg width="50" height="50" viewBox="0 0 50 50" fill="none" xmlns="http://www.w3.org/2000/svg">
<mask id="mask0_82_1251" style="mask-type:luminance" maskUnits="userSpaceOnUse" x="0" y="0" width="50" height="50">
<path d="M0 3.8147e-06H50V50H0V3.8147e-06Z" fill="white"/>
</mask>
<g mask="url(#mask0_82_1251)">
<path d="M2.61426 46.3181V27.1484" stroke="#C9988A" stroke-width="1.3" stroke-miterlimit="10" stroke-linecap="round" stroke-linejoin="round"/>
<path d="M47.3857 27.1484V46.3181" stroke="#C9988A" stroke-width="1.3" stroke-miterlimit="10" stroke-linecap="round" stroke-linejoin="round"/>
<path d="M37.8115 23.938H48.42C48.6897 23.938 48.9083 24.1566 48.9083 24.4263V26.6598C48.9083 26.9295 48.6897 27.1481 48.42 27.1481H37.8115" stroke="#C9988A" stroke-width="1.3" stroke-miterlimit="10" stroke-linecap="round" stroke-linejoin="round"/>
<path d="M12.1886 27.1479H1.58008C1.31035 27.1479 1.0918 26.9294 1.0918 26.6597V24.4262C1.0918 24.1564 1.31035 23.9379 1.58008 23.9379H12.1886" stroke="#C9988A" stroke-width="1.3" stroke-miterlimit="10" stroke-linecap="round" stroke-linejoin="round"/>
<path d="M23.1162 12.3307V16.0811" stroke="#C9988A" stroke-width="1.3" stroke-miterlimit="10" stroke-linecap="round" stroke-linejoin="round"/>
<path d="M26.8838 12.3307V16.0811" stroke="#C9988A" stroke-width="1.3" stroke-miterlimit="10" stroke-linecap="round" stroke-linejoin="round"/>
<path d="M37.8115 41.9915V46.3188" stroke="#C9988A" stroke-width="1.3" stroke-miterlimit="10" stroke-linecap="round" stroke-linejoin="round"/>
<path d="M37.8115 19.2911V38.8002" stroke="#C9988A" stroke-width="1.3" stroke-miterlimit="10" stroke-linecap="round" stroke-linejoin="round"/>
<path d="M12.1885 46.3188V19.2911" stroke="#C9988A" stroke-width="1.3" stroke-miterlimit="10" stroke-linecap="round" stroke-linejoin="round"/>
<path d="M17.231 16.0812H39.4602C39.7299 16.0812 39.9484 16.2999 39.9484 16.5695V18.803C39.9484 19.0727 39.7299 19.2913 39.4602 19.2913H10.54C10.2704 19.2913 10.0518 19.0727 10.0518 18.803V16.5695C10.0518 16.2999 10.2704 16.0812 10.54 16.0812H14.039" stroke="#C9988A" stroke-width="1.3" stroke-miterlimit="10" stroke-linecap="round" stroke-linejoin="round"/>
<path d="M30.9518 6.68389C30.9518 9.9707 28.2872 12.6353 25.0003 12.6353C21.7134 12.6353 19.0488 9.9707 19.0488 6.68389C19.0488 3.39697 21.7134 0.732422 25.0003 0.732422C28.2872 0.732422 30.9518 3.39697 30.9518 6.68389Z" stroke="#C9988A" stroke-width="1.3" stroke-miterlimit="10" stroke-linecap="round" stroke-linejoin="round"/>
<path d="M28.2109 5.79692V7.57075C28.2109 7.7937 28.0302 7.97446 27.8072 7.97446H26.6939C26.471 7.97446 26.2902 8.15522 26.2902 8.37827V9.49146C26.2902 9.7144 26.1094 9.89526 25.8864 9.89526H24.1126C23.8896 9.89526 23.7089 9.7144 23.7089 9.49146V8.37827C23.7089 8.15522 23.5281 7.97446 23.3051 7.97446H22.1919C21.9689 7.97446 21.7881 7.7937 21.7881 7.57075V5.79692C21.7881 5.57388 21.9689 5.39312 22.1919 5.39312H23.3051C23.5281 5.39312 23.7089 5.21245 23.7089 4.98931V3.87612C23.7089 3.65317 23.8896 3.47232 24.1126 3.47232H25.8864C26.1094 3.47232 26.2902 3.65317 26.2902 3.87612V4.98931C26.2902 5.21245 26.471 5.39312 26.6939 5.39312H27.8072C28.0302 5.39312 28.2109 5.57388 28.2109 5.79692Z" stroke="#C9988A" stroke-width="1.3" stroke-miterlimit="10" stroke-linecap="round" stroke-linejoin="round"/>
<path d="M30.917 40.4192V46.3181" stroke="#C9988A" stroke-width="1.3" stroke-miterlimit="10" stroke-linecap="round" stroke-linejoin="round"/>
<path d="M19.082 46.3181V40.4192" stroke="#C9988A" stroke-width="1.3" stroke-miterlimit="10" stroke-linecap="round" stroke-linejoin="round"/>
<path d="M19.4478 27.0696H16.417C16.1474 27.0696 15.9287 26.8509 15.9287 26.5813V24.1486C15.9287 23.879 16.1474 23.6603 16.417 23.6603H19.4478C19.7174 23.6603 19.936 23.879 19.936 24.1486V26.5813C19.936 26.8509 19.7174 27.0696 19.4478 27.0696Z" stroke="#C9988A" stroke-width="1.3" stroke-miterlimit="10" stroke-linecap="round" stroke-linejoin="round"/>
<path d="M26.5151 27.0695H23.4844C23.2147 27.0695 22.9961 26.8508 22.9961 26.5812V24.1485C22.9961 23.8788 23.2147 23.6602 23.4844 23.6602H26.5151C26.7848 23.6602 27.0034 23.8788 27.0034 24.1485V26.5812C27.0034 26.8508 26.7848 27.0695 26.5151 27.0695Z" stroke="#C9988A" stroke-width="1.3" stroke-miterlimit="10" stroke-linecap="round" stroke-linejoin="round"/>
<path d="M33.5825 27.0695H30.5518C30.2821 27.0695 30.0635 26.8508 30.0635 26.5812V24.1485C30.0635 23.8788 30.2821 23.6602 30.5518 23.6602H33.5825C33.8521 23.6602 34.0708 23.8788 34.0708 24.1485V26.5812C34.0708 26.8508 33.8521 27.0695 33.5825 27.0695Z" stroke="#C9988A" stroke-width="1.3" stroke-miterlimit="10" stroke-linecap="round" stroke-linejoin="round"/>
<path d="M44.1382 34.5996H41.1074C40.8378 34.5996 40.6191 34.381 40.6191 34.1113V31.6787C40.6191 31.409 40.8378 31.1904 41.1074 31.1904H44.1382C44.4078 31.1904 44.6265 31.409 44.6265 31.6787V34.1113C44.6265 34.381 44.4078 34.5996 44.1382 34.5996Z" stroke="#C9988A" stroke-width="1.3" stroke-miterlimit="10" stroke-linecap="round" stroke-linejoin="round"/>
<path d="M8.98291 34.5996H5.95215C5.68252 34.5996 5.46387 34.381 5.46387 34.1113V31.6787C5.46387 31.409 5.68252 31.1904 5.95215 31.1904H8.98291C9.25254 31.1904 9.47119 31.409 9.47119 31.6787V34.1113C9.47119 34.381 9.25254 34.5996 8.98291 34.5996Z" stroke="#C9988A" stroke-width="1.3" stroke-miterlimit="10" stroke-linecap="round" stroke-linejoin="round"/>
<path d="M44.1382 41.6294H41.1074C40.8378 41.6294 40.6191 41.4107 40.6191 41.1411V38.7085C40.6191 38.4388 40.8378 38.2202 41.1074 38.2202H44.1382C44.4078 38.2202 44.6265 38.4388 44.6265 38.7085V41.1411C44.6265 41.4107 44.4078 41.6294 44.1382 41.6294Z" stroke="#C9988A" stroke-width="1.3" stroke-miterlimit="10" stroke-linecap="round" stroke-linejoin="round"/>
<path d="M8.98291 41.6294H5.95215C5.68252 41.6294 5.46387 41.4107 5.46387 41.1411V38.7085C5.46387 38.4388 5.68252 38.2202 5.95215 38.2202H8.98291C9.25254 38.2202 9.47119 38.4388 9.47119 38.7085V41.1411C9.47119 41.4107 9.25254 41.6294 8.98291 41.6294Z" stroke="#C9988A" stroke-width="1.3" stroke-miterlimit="10" stroke-linecap="round" stroke-linejoin="round"/>
<path d="M19.4478 33.5315H16.417C16.1474 33.5315 15.9287 33.3129 15.9287 33.0432V30.6106C15.9287 30.341 16.1474 30.1223 16.417 30.1223H19.4478C19.7174 30.1223 19.936 30.341 19.936 30.6106V33.0432C19.936 33.3129 19.7174 33.5315 19.4478 33.5315Z" stroke="#C9988A" stroke-width="1.3" stroke-miterlimit="10" stroke-linecap="round" stroke-linejoin="round"/>
<path d="M26.5151 33.5315H23.4844C23.2147 33.5315 22.9961 33.3129 22.9961 33.0432V30.6106C22.9961 30.341 23.2147 30.1223 23.4844 30.1223H26.5151C26.7848 30.1223 27.0034 30.341 27.0034 30.6106V33.0432C27.0034 33.3129 26.7848 33.5315 26.5151 33.5315Z" stroke="#C9988A" stroke-width="1.3" stroke-miterlimit="10" stroke-linecap="round" stroke-linejoin="round"/>
<path d="M33.5825 33.5315H30.5518C30.2821 33.5315 30.0635 33.3129 30.0635 33.0432V30.6106C30.0635 30.341 30.2821 30.1223 30.5518 30.1223H33.5825C33.8521 30.1223 34.0708 30.341 34.0708 30.6106V33.0432C34.0708 33.3129 33.8521 33.5315 33.5825 33.5315Z" stroke="#C9988A" stroke-width="1.3" stroke-miterlimit="10" stroke-linecap="round" stroke-linejoin="round"/>
<path d="M25 40.419V46.3184" stroke="#C9988A" stroke-width="1.3" stroke-miterlimit="10" stroke-linecap="round" stroke-linejoin="round"/>
<path d="M12.1884 49.2676H1.72656C1.18721 49.2676 0.75 48.8303 0.75 48.291V47.2946C0.75 46.7553 1.18721 46.3181 1.72656 46.3181H48.2732C48.8126 46.3181 49.2498 46.7553 49.2498 47.2946V48.291C49.2498 48.8303 48.8126 49.2676 48.2732 49.2676H15.403" stroke="#C9988A" stroke-width="1.3" stroke-miterlimit="10" stroke-linecap="round" stroke-linejoin="round"/>
<path d="M31.5405 40.3956H18.459C18.1894 40.3956 17.9707 40.1771 17.9707 39.9073V37.9631C17.9707 37.6934 18.1894 37.4748 18.459 37.4748H31.5405C31.8102 37.4748 32.0288 37.6934 32.0288 37.9631V39.9073C32.0288 40.1771 31.8102 40.3956 31.5405 40.3956Z" stroke="#C9988A" stroke-width="1.3" stroke-miterlimit="10" stroke-linecap="round" stroke-linejoin="round"/>
</g>
</svg>
