<svg width="50" height="50" viewBox="0 0 50 50" fill="none" xmlns="http://www.w3.org/2000/svg">
<g clip-path="url(#clip0_39_418)">
<path d="M8.3334 50C8.19913 50 8.06371 49.9748 7.93439 49.9207C7.54605 49.7604 7.29199 49.3793 7.29199 48.9582V42.7082C7.29199 42.1322 7.75853 41.6668 8.3334 41.6668C8.90866 41.6668 9.3752 42.1322 9.3752 42.7082V46.4439L13.8472 41.972C14.0417 41.7759 14.3076 41.6668 14.5834 41.6668H45.8334C46.9824 41.6668 47.917 40.7322 47.917 39.5832V10.4168C47.917 9.26781 46.9824 8.33321 45.8334 8.33321H40.6252C40.0492 8.33321 39.5834 7.86667 39.5834 7.29179C39.5834 6.71654 40.0492 6.25 40.6252 6.25H45.8334C48.1314 6.25 50.0002 8.11882 50.0002 10.4168V39.5832C50.0002 41.8812 48.1314 43.75 45.8334 43.75H15.0148L9.07002 49.6948C8.8709 49.8936 8.60425 50 8.3334 50Z" fill="#002345"/>
<path d="M4.16679 43.75C1.86882 43.75 0 41.8812 0 39.5832V10.4168C0 8.11882 1.86882 6.25 4.16679 6.25H9.375C9.94987 6.25 10.4168 6.71654 10.4168 7.29179C10.4168 7.86667 9.94987 8.33321 9.375 8.33321H4.16679C3.01781 8.33321 2.08321 9.26781 2.08321 10.4168V39.5832C2.08321 40.7322 3.01781 41.6668 4.16679 41.6668C4.74167 41.6668 5.20821 42.1322 5.20821 42.7082C5.20821 43.2842 4.74167 43.75 4.16679 43.75Z" fill="#002345"/>
<path d="M39.5834 26.0418H38.542C37.966 26.0418 37.5002 25.5749 37.5002 25C37.5002 24.4251 37.966 23.9582 38.542 23.9582H39.5834C40.7324 23.9582 41.667 23.024 41.667 21.875V19.7918C41.667 18.6428 40.7324 17.7082 39.5834 17.7082H38.542C37.966 17.7082 37.5002 17.2417 37.5002 16.6668V14.5832C37.5002 7.69081 31.893 2.08321 25.0002 2.08321C18.1074 2.08321 12.5002 7.69081 12.5002 14.5832V16.6668C12.5002 17.2417 12.0337 17.7082 11.4584 17.7082C10.8835 17.7082 10.417 17.2417 10.417 16.6668V14.5832C10.417 6.54182 16.9584 0 25.0002 0C33.042 0 39.5834 6.54182 39.5834 14.5832V15.625C41.8814 15.625 43.7502 17.4938 43.7502 19.7918V21.875C43.7502 24.173 41.8814 26.0418 39.5834 26.0418Z" fill="#002345"/>
<path d="M11.4582 26.0418H10.4168C8.11882 26.0418 6.25 24.173 6.25 21.875V19.7918C6.25 17.4938 8.11882 15.625 10.4168 15.625H11.4582C12.0335 15.625 12.5 16.0915 12.5 16.6668V25C12.5 25.5749 12.0335 26.0418 11.4582 26.0418ZM10.4168 17.7082C9.26781 17.7082 8.33321 18.6428 8.33321 19.7918V21.875C8.33321 23.024 9.26781 23.9582 10.4168 23.9582V17.7082Z" fill="#002345"/>
<path d="M25 39.5832C23.2769 39.5832 21.875 38.1813 21.875 36.4582C21.875 34.7354 23.2769 33.3332 25 33.3332C26.3584 33.3332 27.5166 34.2041 27.9469 35.4167H28.125C33.2947 35.4167 37.5 31.2114 37.5 26.0417V20.8332C37.5 20.2583 37.9658 19.7917 38.5418 19.7917C39.1178 19.7917 39.5832 20.2583 39.5832 20.8332V26.0417C39.5832 32.3593 34.4425 37.5 28.125 37.5H27.0832C26.5072 37.5 26.0418 37.0342 26.0418 36.4582C26.0418 35.8833 25.5741 35.4167 25 35.4167C24.4259 35.4167 23.9582 35.8833 23.9582 36.4582C23.9582 37.0334 24.4259 37.5 25 37.5C25.5749 37.5 26.0418 37.9657 26.0418 38.5417C26.0418 39.1178 25.5749 39.5832 25 39.5832Z" fill="#002345"/>
<path d="M34.3748 15.625C33.7988 15.625 33.333 15.1584 33.333 14.5832C33.333 9.98836 29.5946 6.24995 24.9998 6.24995C20.405 6.24995 16.6666 9.98836 16.6666 14.5832C16.6666 15.1584 16.1997 15.625 15.6248 15.625C15.0499 15.625 14.583 15.1584 14.583 14.5832C14.583 8.83937 19.256 4.16675 24.9998 4.16675C30.7436 4.16675 35.4166 8.83937 35.4166 14.5832C35.4166 15.1584 34.9508 15.625 34.3748 15.625Z" fill="#002345"/>
<path d="M19.792 27.0833H21.8752V29.1668H19.792V27.0833Z" fill="#002345"/>
<path d="M23.958 27.0833H26.0416V29.1668H23.958V27.0833Z" fill="#002345"/>
<path d="M28.125 27.0833H30.2082V29.1668H28.125V27.0833Z" fill="#002345"/>
</g>
<defs>
<clipPath id="clip0_39_418">
<rect width="50" height="50" fill="white"/>
</clipPath>
</defs>
</svg>
