<svg width="50" height="50" viewBox="0 0 50 50" fill="none" xmlns="http://www.w3.org/2000/svg">
<g clip-path="url(#clip0_39_432)">
<path d="M44.2139 8.89648H31.7503C31.9184 8.2959 32.0102 7.66367 32.0102 7.01016C32.0102 3.14473 28.8654 0 25 0C21.1346 0 17.9898 3.14473 17.9898 7.01016C17.9898 7.66367 18.0816 8.2958 18.2497 8.89648H13.1685C12.764 8.89648 12.436 9.22441 12.436 9.62891C12.436 10.0334 12.764 10.3613 13.1685 10.3613H18.8442C20.0348 12.5396 22.3476 14.0204 24.9999 14.0204C27.6522 14.0204 29.965 12.5396 31.1556 10.3613H44.2139C45.4255 10.3613 46.4111 11.347 46.4111 12.5586V25.0449C46.4111 26.2565 45.4255 27.2422 44.2139 27.2422H25.8082V25.5761C25.8082 24.1972 24.6864 23.0754 23.3075 23.0754C21.9286 23.0754 20.8069 24.1972 20.8069 25.5761V27.2422H5.78613C4.57451 27.2422 3.58887 26.2565 3.58887 25.0449V12.5586C3.58887 11.347 4.57451 10.3613 5.78613 10.3613H9.75059C10.1551 10.3613 10.483 10.0334 10.483 9.62891C10.483 9.22441 10.1551 8.89648 9.75059 8.89648H5.78613C3.7668 8.89648 2.12402 10.5393 2.12402 12.5586V25.0449C2.12402 27.0643 3.7668 28.707 5.78613 28.707H20.8069V31.3762C20.8069 31.3781 20.8066 31.3799 20.8066 31.3818V37.0938L18.4302 35.0358C17.4377 34.1777 16.0659 33.9516 14.8496 34.4458L14.269 34.6823C13.6443 34.9322 13.3904 35.7144 13.7468 36.2852L20.2127 46.7619C20.2627 46.8428 20.3102 46.9265 20.3539 47.0105C21.3139 48.8545 23.2358 50 25.3699 50H30.6328C32.9214 50 34.9799 48.6396 35.877 46.5342C36.2359 45.6917 36.4181 44.8002 36.4181 43.8843V41.9067C36.4181 41.5022 36.0901 41.1743 35.6856 41.1743C35.2812 41.1743 34.9532 41.5022 34.9532 41.9067V43.8843C34.9532 44.6017 34.8106 45.3 34.5294 45.9599C33.8628 47.5242 32.3333 48.5351 30.6328 48.5351H25.3699C23.7842 48.5351 22.3601 47.6917 21.6535 46.3342C21.5933 46.2184 21.5278 46.1032 21.4593 45.9922L15.217 35.8777L15.4019 35.8024C16.1051 35.5169 16.8982 35.6477 17.4719 36.1434L20.4456 38.7187C20.7762 39.0049 21.2287 39.0698 21.6265 38.8879C22.0245 38.7061 22.2717 38.3213 22.2717 37.8837V36.774C22.2717 36.7721 22.272 36.7703 22.272 36.7684V25.576C22.272 25.0048 22.7366 24.5401 23.3077 24.5401C23.8788 24.5401 24.3436 25.0048 24.3436 25.576V32.9372V35.7991C24.3436 36.2036 24.6715 36.5315 25.076 36.5315C25.4805 36.5315 25.8084 36.2036 25.8084 35.7991V32.9372C25.8084 32.366 26.273 31.9015 26.8441 31.9015C27.4152 31.9015 27.88 32.3661 27.88 32.9372V35.7991C27.88 36.2036 28.2079 36.5315 28.6124 36.5315C29.0169 36.5315 29.3448 36.2036 29.3448 35.7991V32.9372C29.3448 32.366 29.8095 31.9015 30.3806 31.9015C30.9517 31.9015 31.4164 32.3661 31.4164 32.9372V34.4021V35.7991C31.4164 36.2036 31.7443 36.5315 32.1488 36.5315C32.5533 36.5315 32.8813 36.2036 32.8813 35.7991V34.4021C32.8813 33.8309 33.3459 33.3663 33.917 33.3663C34.4881 33.3663 34.9527 33.831 34.9527 34.4021V36.7684C34.9527 36.7709 34.9531 36.7733 34.9531 36.7759V38.4887C34.9531 38.8932 35.2811 39.2211 35.6855 39.2211C36.09 39.2211 36.418 38.8932 36.418 38.4887V35.0332C36.418 35.0307 36.4176 35.0282 36.4176 35.0257V34.4021C36.4176 33.0232 35.2958 31.9016 33.917 31.9016C33.5017 31.9016 33.11 32.0039 32.7649 32.1839C32.4445 31.1722 31.4969 30.4367 30.3805 30.4367C29.6906 30.4367 29.0651 30.7176 28.6122 31.1708C28.1594 30.7175 27.5338 30.4367 26.8439 30.4367C26.4746 30.4367 26.124 30.5179 25.8082 30.6622V28.707H44.2139C46.2332 28.707 47.876 27.0643 47.876 25.0449V12.5586C47.876 10.5393 46.2332 8.89648 44.2139 8.89648ZM25 12.5556C21.9423 12.5556 19.4547 10.0679 19.4547 7.01016C19.4547 3.95244 21.9423 1.46484 25 1.46484C28.0577 1.46484 30.5453 3.95244 30.5453 7.01016C30.5453 10.0679 28.0577 12.5556 25 12.5556ZM14.7689 21.766V15.8381C14.7689 15.4336 14.441 15.1057 14.0365 15.1057C13.632 15.1057 13.3041 15.4336 13.3041 15.8381V21.766C13.3041 22.1705 13.632 22.4984 14.0365 22.4984C14.441 22.4984 14.7689 22.1705 14.7689 21.766ZM27.5183 6.27773H25.7324V4.49199C25.7324 4.0875 25.4045 3.75957 25 3.75957C24.5955 3.75957 24.2676 4.0875 24.2676 4.49199V6.27783H22.4817C22.0772 6.27783 21.7493 6.60576 21.7493 7.01025C21.7493 7.41475 22.0772 7.74268 22.4817 7.74268H24.2676V9.52852C24.2676 9.93301 24.5955 10.2609 25 10.2609C25.4045 10.2609 25.7324 9.93301 25.7324 9.52852V7.74258H27.5183C27.9228 7.74258 28.2507 7.41465 28.2507 7.01016C28.2507 6.60566 27.9228 6.27773 27.5183 6.27773ZM8.34541 15.23C7.53027 15.4755 6.95361 16.1179 6.84033 16.9063C6.73418 17.646 7.05479 18.3574 7.67695 18.7632C7.93594 18.932 8.44219 19.1282 9.54805 19.5361C9.80996 19.6327 10.4105 19.9058 10.3308 20.3527C10.271 20.6875 9.86416 21.0338 9.28682 21.0338C8.69521 21.0338 8.12588 20.7952 7.76377 20.3956C7.49219 20.096 7.029 20.0731 6.7292 20.3447C6.42949 20.6164 6.40674 21.0796 6.67832 21.3793C7.31348 22.0802 8.28867 22.4985 9.28682 22.4985C10.5319 22.4985 11.5775 21.7043 11.7729 20.6101C11.9198 19.787 11.5457 18.7115 10.055 18.1617C9.32539 17.8927 8.64639 17.5995 8.43945 17.5089C8.27383 17.3765 8.2793 17.1915 8.29043 17.1145C8.30566 17.0082 8.38271 16.7485 8.76797 16.6325C9.60801 16.3794 10.3864 16.9946 10.4072 17.0113C10.7168 17.2681 11.1761 17.2271 11.4354 16.9188C11.6957 16.6092 11.6557 16.1472 11.3461 15.8869C11.2902 15.8399 9.96055 14.7434 8.34541 15.23ZM40.1551 21.766V19.9195C40.4895 19.9178 40.86 19.9162 41.0732 19.9162C42.4176 19.9162 43.5113 18.8372 43.5113 17.5109C43.5113 16.1847 42.4176 15.1057 41.0732 15.1057H39.4227C39.0616 15.098 38.6753 15.4256 38.6902 15.8381V21.766C38.6902 22.1705 39.0182 22.4984 39.4227 22.4984C39.8271 22.4984 40.1551 22.1705 40.1551 21.766ZM41.0732 16.5705C41.6008 16.5705 42.0465 17.0012 42.0465 17.5109C42.0465 18.0207 41.6008 18.4514 41.0732 18.4514C40.8614 18.4514 40.4954 18.4529 40.1625 18.4547C40.1607 18.1104 40.1582 16.9309 40.1572 16.5705H41.0732ZM32.4181 15.1057C32.0136 15.1057 31.6856 15.4336 31.6856 15.8381V19.9172C31.6856 20.8085 32.1123 21.5331 32.9537 22.0708C33.3969 22.3539 33.8968 22.4978 34.4397 22.4984H34.4441C34.912 22.4984 35.3512 22.3967 35.7495 22.1961C37.006 21.5634 37.2696 20.6052 37.2696 19.9129V15.8381C37.2696 15.4336 36.9417 15.1057 36.5372 15.1057C36.1327 15.1057 35.8048 15.4336 35.8048 15.8381V19.9129C35.8048 20.1993 35.7236 20.569 35.0906 20.8878C34.8958 20.9858 34.6844 21.0336 34.4441 21.0336C34.4434 21.0336 34.4425 21.0336 34.4417 21.0336C34.1784 21.0333 33.9496 20.9688 33.7424 20.8363C33.2512 20.5225 33.1505 20.2419 33.1505 19.9171V15.838C33.1505 15.4336 32.8227 15.1057 32.4181 15.1057ZM19.899 16.5705C20.3464 16.5705 20.7776 16.7021 21.1462 16.9512C21.4814 17.1776 21.9366 17.0896 22.1632 16.7544C22.3896 16.4192 22.3016 15.964 21.9664 15.7374C21.3547 15.3241 20.6399 15.1057 19.8991 15.1057C17.8609 15.1057 16.2027 16.7639 16.2027 18.8021C16.2027 20.8402 17.8609 22.4984 19.8991 22.4984C21.8368 22.4984 23.1902 20.9784 23.1902 18.8021C23.1902 18.3976 22.8623 18.0696 22.4578 18.0696H20.6845C20.28 18.0696 19.9521 18.3976 19.9521 18.8021C19.9521 19.2065 20.28 19.5345 20.6845 19.5345H21.642C21.4543 20.3276 20.932 21.0336 19.8991 21.0336C18.6687 21.0336 17.6676 20.0325 17.6676 18.8021C17.6676 17.5716 18.6686 16.5705 19.899 16.5705ZM26.1149 21.766V18.1986L28.7808 22.0589C28.9964 22.3702 29.3558 22.5025 29.6965 22.3963C30.0442 22.2877 30.2689 21.9618 30.2689 21.5662V15.838C30.2689 15.4335 29.941 15.1056 29.5365 15.1056C29.132 15.1056 28.8041 15.4335 28.8041 15.838V19.5147L25.9853 15.4329C25.8031 15.1691 25.4707 15.0545 25.1646 15.1499C24.8586 15.2453 24.6502 15.5286 24.6502 15.8491V21.766C24.6502 22.1705 24.9781 22.4984 25.3826 22.4984C25.7871 22.4984 26.1149 22.1705 26.1149 21.766Z" fill="#002345"/>
</g>
<defs>
<clipPath id="clip0_39_432">
<rect width="50" height="50" fill="white"/>
</clipPath>
</defs>
</svg>
