<svg width="50" height="50" viewBox="0 0 50 50" fill="none" xmlns="http://www.w3.org/2000/svg">
<g clip-path="url(#clip0_39_428)">
<path d="M42.2164 25.916C39.325 25.916 36.854 27.7481 35.902 30.3122H33.4344C28.6376 30.3122 24.7352 34.2146 24.7352 39.0114V42.0262C24.7352 43.9567 23.1645 45.5272 21.2341 45.5272C19.3036 45.5272 17.733 43.9566 17.733 42.0262V31.392C19.8874 30.9928 21.8905 30.0261 23.5595 28.5744C25.4064 26.9679 26.7188 24.8734 27.3551 22.5176L27.8454 20.7018C28.1004 19.7577 27.7082 18.7894 26.9415 18.2684L29.7881 7.72715C30.1489 6.39121 29.8732 4.99502 29.0319 3.89639C28.1906 2.79775 26.9146 2.16768 25.5309 2.16768H24.5089C24.1834 0.92207 23.0486 0 21.7024 0C20.1031 0 18.8021 1.30117 18.8021 2.90039C18.8021 4.49961 20.1032 5.80078 21.7024 5.80078C23.0513 5.80078 24.1879 4.87529 24.5109 3.62607H25.5309C26.4569 3.62607 27.3109 4.04775 27.874 4.78301C28.4371 5.51826 28.6215 6.45273 28.3801 7.34678L25.5333 17.8888C25.1988 17.9114 24.8712 18.0076 24.572 18.1797C24.0541 18.4773 23.6831 18.9589 23.5274 19.5356L23.3484 20.1985C23.2435 20.5874 23.4735 20.9877 23.8623 21.0927C24.2512 21.1976 24.6515 20.9676 24.7563 20.5787L24.9354 19.9158C24.9896 19.7151 25.1187 19.5477 25.2987 19.4441C25.4788 19.3407 25.6882 19.3135 25.8892 19.3677C26.3031 19.4795 26.5491 19.9073 26.4373 20.3214L25.947 22.1372C24.8043 26.3684 21.2564 29.4729 16.9083 30.0462C16.5456 30.094 16.2744 30.4032 16.2744 30.7691V42.026C16.2744 44.7607 18.4992 46.9855 21.234 46.9855C23.9688 46.9855 26.1936 44.7607 26.1936 42.026V39.0112C26.1936 35.0187 29.4417 31.7705 33.4343 31.7705H35.5422C35.5045 32.0583 35.483 32.3512 35.483 32.6491C35.483 32.8776 35.4947 33.1035 35.5171 33.3263H33.4344C30.2996 33.3263 27.7493 35.8766 27.7493 39.0112V42.026C27.7493 45.6186 24.8266 48.5413 21.234 48.5413C17.6414 48.5413 14.7187 45.6186 14.7187 42.026V40.7628C14.7187 40.3601 14.3922 40.0336 13.9895 40.0336C13.5867 40.0336 13.2603 40.3601 13.2603 40.7628V42.026C13.2603 46.4228 16.8372 49.9997 21.234 49.9997C25.6308 49.9997 29.2078 46.4227 29.2078 42.026V39.0112C29.2078 36.6808 31.1038 34.7848 33.4344 34.7848H35.8322C36.7274 37.4535 39.25 39.3825 42.2164 39.3825C45.9292 39.3825 48.9497 36.362 48.9497 32.6492C48.9497 28.9364 45.9292 25.916 42.2164 25.916ZM21.7024 4.34238C20.9073 4.34238 20.2604 3.69551 20.2604 2.90039C20.2604 2.10527 20.9072 1.4584 21.7024 1.4584C22.4977 1.4584 23.1444 2.10527 23.1444 2.90039C23.1444 3.69551 22.4976 4.34238 21.7024 4.34238ZM42.2164 37.9242C39.3079 37.9242 36.9416 35.5579 36.9416 32.6494C36.9416 29.7409 39.3079 27.3746 42.2164 27.3746C45.1249 27.3746 47.4912 29.7409 47.4912 32.6494C47.4912 35.5579 45.1249 37.9242 42.2164 37.9242Z" fill="#002345"/>
<path d="M42.2165 28.918C41.8466 28.918 41.4808 28.9722 41.1296 29.079C40.7442 29.1962 40.527 29.6035 40.6441 29.9889C40.7614 30.3742 41.1688 30.5915 41.5541 30.4743C41.7677 30.4094 41.9905 30.3765 42.2166 30.3765C43.4698 30.3765 44.4894 31.396 44.4894 32.6492C44.4894 33.9024 43.4697 34.922 42.2166 34.922C40.9635 34.922 39.9438 33.9024 39.9438 32.6492C39.9438 32.5083 39.9567 32.3672 39.9823 32.2298C40.0561 31.8338 39.7947 31.4531 39.3987 31.3795C39.0034 31.3055 38.6221 31.5671 38.5485 31.9631C38.5066 32.1882 38.4854 32.419 38.4854 32.6492C38.4854 34.7066 40.1592 36.3805 42.2166 36.3805C44.274 36.3805 45.9479 34.7066 45.9479 32.6492C45.9479 30.5918 44.274 28.918 42.2165 28.918Z" fill="#002345"/>
<path d="M13.2604 37.6516C13.2604 38.0543 13.5868 38.3808 13.9896 38.3808C14.3923 38.3808 14.7188 38.0543 14.7188 37.6516V30.7694C14.7188 30.4035 14.4476 30.0942 14.0849 30.0465C9.73682 29.473 6.18897 26.3687 5.04629 22.1375L4.55596 20.3217C4.50186 20.121 4.52901 19.9114 4.63262 19.7313C4.73614 19.5512 4.90362 19.4222 5.10401 19.368C5.51875 19.2563 5.9462 19.5021 6.05801 19.916L6.54834 21.7318C7.6378 25.7665 11.3176 28.5844 15.4967 28.5844C18.9366 28.5844 22.0758 26.6937 23.6892 23.6502C23.8777 23.2943 23.7422 22.8529 23.3863 22.6644C23.0304 22.4757 22.5891 22.6113 22.4004 22.9671C21.0406 25.5323 18.3953 27.1259 15.4967 27.1259C11.9752 27.1259 8.87452 24.7514 7.95625 21.3516L7.46592 19.5357C7.21114 18.592 6.38496 17.9526 5.45996 17.8883L2.61328 7.34688C2.37188 6.45283 2.55645 5.51836 3.11944 4.78301C3.68243 4.04775 4.53653 3.62607 5.4626 3.62607H6.25381C6.57686 4.87529 7.71348 5.80078 9.06231 5.80078C10.6616 5.80078 11.9627 4.49961 11.9627 2.90039C11.9627 1.30117 10.6615 0 9.06221 0C7.71602 0 6.58125 0.92207 6.25576 2.16768H5.4626C4.07881 2.16768 2.80274 2.79775 1.96153 3.89639C1.12012 4.99502 0.844632 6.39121 1.20528 7.72715L4.05196 18.2684C3.28526 18.7894 2.89307 19.7577 3.14805 20.7018L3.63838 22.5176C4.27461 24.8735 5.58702 26.9679 7.43399 28.5744C9.10284 30.0261 11.1061 30.9928 13.2604 31.392V37.6516ZM9.06221 1.4585C9.85733 1.4585 10.5042 2.10537 10.5042 2.90049C10.5042 3.69561 9.85742 4.34248 9.06221 4.34248C8.26699 4.34248 7.62032 3.69551 7.62032 2.90039C7.62032 2.10527 8.26709 1.4585 9.06221 1.4585Z" fill="#002345"/>
</g>
<defs>
<clipPath id="clip0_39_428">
<rect width="50" height="50" fill="white"/>
</clipPath>
</defs>
</svg>
