<svg width="75" height="75" viewBox="0 0 75 75" fill="none" xmlns="http://www.w3.org/2000/svg">
<path fill-rule="evenodd" clip-rule="evenodd" d="M19.9333 57.0022H14.9031C14.5693 57.0022 14.2511 56.8603 14.028 56.6119C13.8047 56.3636 13.6977 56.0321 13.7334 55.7002C14.8012 45.7562 21.962 37.6356 31.4068 35.1518C27.4956 32.9912 24.8372 28.8215 24.8372 24.0518C24.8372 17.0758 30.524 11.383 37.5 11.383C44.4827 11.383 50.1689 17.0759 50.1689 24.0518C50.1689 28.8216 47.5105 32.9917 43.597 35.1521C53.0449 37.6362 60.2042 45.7571 61.2668 55.7008C61.3022 56.0327 61.195 56.364 60.972 56.6122C60.7487 56.8605 60.4308 57.0022 60.097 57.0022H55.0668C55.027 58.2664 54.4695 59.2931 53.6064 60.1337V70.3943C53.6064 72.3575 51.9981 73.9705 50.0303 73.9705H24.9697C23.002 73.9705 21.3936 72.3575 21.3936 70.3943V60.1337C20.5306 59.2931 19.9731 58.2664 19.9333 57.0022ZM37.5 36.7208C26.8347 36.7208 17.9787 44.4718 16.253 54.6493H19.9309V51.0052C19.9309 49.6797 21.0128 48.6011 22.3381 48.6011H29.9224V47.2109C29.9224 45.1506 31.6084 43.4646 33.6686 43.4646H41.3315C43.3917 43.4646 45.0777 45.1506 45.0777 47.2109V48.6011H52.662C53.9873 48.6011 55.0692 49.6797 55.0692 51.0052V54.6493H58.7478C57.0274 44.4717 48.1708 36.7208 37.5 36.7208ZM37.5 34.3678C43.1858 34.3678 47.8159 29.7321 47.8159 24.0518C47.8159 18.3715 43.1858 13.7359 37.5 13.7359C31.8199 13.7359 27.1902 18.3716 27.1902 24.0518C27.1902 29.7319 31.8199 34.3678 37.5 34.3678ZM51.2534 61.6886C49.0487 62.6486 45.5258 63.2883 41.6472 63.5465C41.3334 65.5553 39.5975 67.09 37.5 67.09C35.4034 67.09 33.6681 65.5567 33.3533 63.549C29.4784 63.2931 25.9567 62.6547 23.7465 61.6897V70.3943C23.7465 71.0658 24.2967 71.6175 24.9697 71.6175H50.0303C50.7034 71.6175 51.2534 71.0658 51.2534 70.3943V61.6886ZM41.3464 61.2092C45.5047 60.953 49.2383 60.298 51.0547 59.1494C51.2753 59.0094 51.4858 58.8622 51.6803 58.7014C51.6814 58.7005 51.6825 58.6996 51.6836 58.6989C52.2683 58.2189 52.7162 57.6419 52.7162 56.8559V51.0052C52.7162 50.9761 52.6909 50.954 52.662 50.954H47.2362V53.7759C47.2362 55.2706 46.0143 56.4924 44.5197 56.4924H30.4803C28.9858 56.4924 27.7639 55.2706 27.7639 53.7759V50.954H22.3381C22.3092 50.954 22.2839 50.9761 22.2839 51.0052V56.8559C22.2839 57.6419 22.7318 58.2189 23.3165 58.6989C23.3175 58.6996 23.3186 58.7005 23.3197 58.7014C23.5143 58.8622 23.7249 59.0094 23.9455 59.1496C25.7708 60.305 29.5011 60.958 33.6527 61.2115C34.3 59.7322 35.7759 58.6946 37.5 58.6946C39.2233 58.6946 40.6984 59.7312 41.3464 61.2092ZM44.8833 50.954H30.1168V53.7759C30.1168 53.9759 30.2803 54.1394 30.4803 54.1394H44.5197C44.7197 54.1394 44.8833 53.9759 44.8833 53.7759V50.954ZM42.7248 48.6011V47.2109C42.7248 46.4446 42.0977 45.8175 41.3315 45.8175H33.6686C32.9024 45.8175 32.2753 46.4446 32.2753 47.2109V48.6011H42.7248ZM35.6552 62.8922C35.6552 63.9119 36.4803 64.7371 37.5 64.7371C38.5196 64.7371 39.3447 63.9119 39.3447 62.8922C39.3447 61.8764 38.5215 61.0475 37.5 61.0475C36.4786 61.0475 35.6552 61.8764 35.6552 62.8922ZM13.9792 1.72018L13.9803 1.7215C17.1849 5.61386 20.3896 9.51077 23.5943 13.4031C24.0668 13.9675 24.1703 14.7197 23.8687 15.4022C23.8677 15.4046 23.8665 15.4069 23.8655 15.4093C23.5534 16.103 22.9136 16.5186 22.1572 16.5186H18.8497V39.4492C18.8497 40.9019 17.6852 42.0664 16.2771 42.0664H8.79063C7.38357 42.0664 6.21342 40.9009 6.21342 39.4492V16.5186H2.90607C2.16092 16.5186 1.51783 16.1067 1.20401 15.4133C0.891216 14.728 1.00004 13.9717 1.46533 13.4077C4.67328 9.51136 7.88122 5.61047 11.0872 1.71636C11.4637 1.25386 11.9614 1.0293 12.5317 1.0293C13.1155 1.0293 13.6118 1.25989 13.9792 1.72018ZM3.88901 14.1656H7.38989C8.03975 14.1656 8.56636 14.6924 8.56636 15.3421V39.4492C8.56636 39.5862 8.65783 39.7134 8.79063 39.7134H16.2771C16.409 39.7134 16.4968 39.5852 16.4968 39.4492V15.3421C16.4968 14.6924 17.0236 14.1656 17.6733 14.1656H21.1743C18.2934 10.6661 15.4125 7.16327 12.5317 3.66386C9.65077 7.16327 6.76989 10.6661 3.88901 14.1656ZM63.9137 1.72018L63.9147 1.7215C67.1195 5.61386 70.3242 9.51077 73.5289 13.4031C74.0014 13.9675 74.1049 14.7197 73.8031 15.4022C73.8021 15.4046 73.8011 15.4069 73.8 15.4093C73.4878 16.103 72.848 16.5186 72.0917 16.5186H68.7843V39.4492C68.7843 40.9019 67.6196 42.0664 66.2117 42.0664H58.7252C57.3181 42.0664 56.148 40.9009 56.148 39.4492V16.5186H52.8406C52.0955 16.5186 51.4524 16.1067 51.1386 15.4133C50.8258 14.728 50.9346 13.9717 51.3999 13.4077C54.6077 9.51136 57.8156 5.61047 61.0218 1.71636C61.3981 1.25386 61.8959 1.0293 62.4662 1.0293C63.05 1.0293 63.5464 1.25989 63.9137 1.72018ZM53.8236 14.1656H57.3245C57.9742 14.1656 58.5009 14.6924 58.5009 15.3421V39.4492C58.5009 39.5862 58.5924 39.7134 58.7252 39.7134H66.2117C66.3434 39.7134 66.4314 39.5852 66.4314 39.4492V15.3421C66.4314 14.6924 66.9581 14.1656 67.6078 14.1656H71.1089C68.228 10.6661 65.3471 7.16327 62.4662 3.66386C59.5853 7.16327 56.7045 10.6661 53.8236 14.1656Z" fill="white"/>
</svg>
