<svg width="75" height="75" viewBox="0 0 75 75" fill="none" xmlns="http://www.w3.org/2000/svg">
<g clip-path="url(#clip0_20_410)">
<path d="M42.5 55H38.75V51.25C38.75 50.5596 38.1904 50 37.5 50C36.8096 50 36.25 50.5596 36.25 51.25V55H32.5C31.8096 55 31.25 55.5596 31.25 56.25C31.25 56.9404 31.8096 57.5 32.5 57.5H36.25V61.25C36.25 61.9404 36.8096 62.5 37.5 62.5C38.1904 62.5 38.75 61.9404 38.75 61.25V57.5H42.5C43.1904 57.5 43.75 56.9404 43.75 56.25C43.75 55.5596 43.1904 55 42.5 55Z" fill="white"/>
<path d="M10 61.25H12.5V71.25H10V61.25Z" fill="white"/>
<path d="M11.2747 67.5C10.5843 67.5035 10.0219 66.9466 10.0184 66.2563C10.015 65.5659 10.5718 65.0035 11.2622 65H11.2747C11.9651 65 12.5247 65.5596 12.5247 66.25C12.5247 66.9404 11.9651 67.5 11.2747 67.5Z" fill="white"/>
<path d="M50 56.25C50 49.3464 44.4036 43.75 37.5 43.75C30.5964 43.75 25 49.3464 25 56.25C25 63.1536 30.5964 68.75 37.5 68.75C44.4004 68.7424 49.9924 63.1504 50 56.25ZM27.5 56.25C27.5 50.7272 31.9772 46.25 37.5 46.25C43.0228 46.25 47.5 50.7272 47.5 56.25C47.5 61.7728 43.0228 66.25 37.5 66.25C31.9797 66.2438 27.5062 61.7703 27.5 56.25Z" fill="white"/>
<path d="M67.0735 10.2936L38.3472 0.144884C37.7985 -0.0469926 37.201 -0.0469926 36.6523 0.144884L7.926 10.2936C6.9868 10.6189 6.33081 11.4713 6.25692 12.4625C6.18304 13.4537 6.7054 14.394 7.586 14.8549L21.2497 22.0749V31.2499H13.7497C11.6787 31.2499 9.99975 32.9288 9.99975 34.9999V61.2499C9.99975 61.9402 10.5594 62.4999 11.2497 62.4999C11.9401 62.4999 12.4997 61.9402 12.4997 61.2499V41.2499H16.2497C16.2497 42.6306 17.369 43.7499 18.7497 43.7499H26.2497C27.6305 43.7499 28.7498 42.6306 28.7498 41.2499H46.2497C46.2497 42.6306 47.369 43.7499 48.7497 43.7499H56.2497C57.6305 43.7499 58.7497 42.6306 58.7497 41.2499H62.4997V71.2499C62.4997 71.9402 61.9401 72.4999 61.2497 72.4999H13.7497C13.0594 72.4999 12.4997 71.9402 12.4997 71.2499C12.4997 70.5595 11.9401 69.9999 11.2497 69.9999C10.5594 69.9999 9.99975 70.5595 9.99975 71.2499C9.99975 73.321 11.6787 74.9999 13.7497 74.9999H61.2497C63.3208 74.9999 64.9997 73.321 64.9997 71.2499V34.9999C64.9997 32.9288 63.3208 31.2499 61.2497 31.2499H53.7497V22.0749L59.9997 18.7724V21.4799C58.5068 22.0077 57.5063 23.4164 57.4997 24.9999V26.2499C57.4997 27.6306 58.619 28.7499 59.9997 28.7499H62.4997C63.8805 28.7499 64.9997 27.6306 64.9997 26.2499V24.9999C64.9932 23.4164 63.9927 22.0077 62.4997 21.4799V17.4511L67.4135 14.8549C68.2941 14.394 68.8165 13.4537 68.7426 12.4625C68.6687 11.4713 68.0127 10.6189 67.0735 10.2936ZM59.9997 26.2499V24.9999C59.9997 24.3095 60.5594 23.7499 61.2497 23.7499C61.9401 23.7499 62.4997 24.3095 62.4997 24.9999V26.2499H59.9997ZM18.7497 41.2499V38.7499H26.2497V41.2499H18.7497ZM48.7497 41.2499V38.7499H56.2497V41.2499H48.7497ZM62.4997 34.9999V38.7499H58.7497C58.7497 37.3692 57.6305 36.2499 56.2497 36.2499H48.7497C47.369 36.2499 46.2497 37.3692 46.2497 38.7499H28.7498C28.7498 37.3692 27.6305 36.2499 26.2497 36.2499H18.7497C17.369 36.2499 16.2497 37.3692 16.2497 38.7499H12.4997V34.9999C12.4997 34.3095 13.0594 33.7499 13.7497 33.7499H61.2497C61.9401 33.7499 62.4997 34.3095 62.4997 34.9999ZM23.7497 31.2499L23.736 16.3399C24.1772 15.4099 29.156 13.7499 37.4998 13.7499C45.8435 13.7499 50.8222 15.4099 51.2497 16.2499V31.2499H23.7497ZM53.7497 19.2499V16.2499C53.7497 12.3024 43.536 11.2499 37.4998 11.2499C31.4635 11.2499 21.2497 12.3024 21.2497 16.2499V19.2499L8.7585 12.6511L37.5147 2.49988L59.9997 10.4399V15.9399L53.7497 19.2499ZM62.4997 14.6249V11.3211L66.2497 12.6436L62.4997 14.6249Z" fill="white"/>
</g>
<defs>
<clipPath id="clip0_20_410">
<rect width="75" height="75" fill="white"/>
</clipPath>
</defs>
</svg>
