<svg width="75" height="75" viewBox="0 0 75 75" fill="none" xmlns="http://www.w3.org/2000/svg">
<path fill-rule="evenodd" clip-rule="evenodd" d="M15.8113 62.0781C15.7221 62.2074 8.48398 72.6965 8.48501 72.695C7.63927 73.9252 5.93721 74.2385 4.70648 73.3893L2.39589 71.7949C1.16545 70.9458 0.85398 69.2477 1.7031 68.0172L7.14398 60.1325C6.96339 59.986 6.78854 59.8318 6.62001 59.6702C4.99839 58.1152 4.09074 56.0046 4.09074 53.8055V9.40973V9.40531C4.09074 4.8487 7.92177 1.13281 12.6738 1.13281H12.6784H65.1871H65.1915C69.9434 1.13281 73.7744 4.8487 73.7746 9.40531C73.7746 9.40678 73.7746 9.40825 73.7744 9.40973L73.7746 53.8055C73.7746 56.0046 72.8669 58.1152 71.2451 59.6702C69.6393 61.21 67.4625 62.0781 65.1915 62.0781H15.8113ZM13.2991 57.0433L14.629 57.9609L15.9002 56.1188C15.4399 55.8383 14.9959 55.5319 14.5703 55.2012L13.2991 57.0433ZM6.14957 15.3243V53.8055C6.14957 55.4483 6.83354 57.0224 8.04501 58.1841C8.13369 58.2693 8.22471 58.3516 8.31795 58.4312L9.03119 57.3977C9.57457 56.6102 10.4671 56.1993 11.3606 56.2277L13.0282 53.8111C11.1753 51.8775 9.84854 49.3983 9.32927 46.5674C7.91707 38.8662 13.0157 31.4774 20.7169 30.065C28.4181 28.6527 35.8071 33.7513 37.2194 41.4527C38.6318 49.1538 33.5329 56.5427 25.8318 57.955C23.0009 58.4741 20.2122 58.1136 17.7471 57.0672L16.0793 59.4841C16.1513 59.6568 16.2053 59.8362 16.2407 60.0193H65.1915C66.9271 60.0193 68.5929 59.361 69.8202 58.1841C71.0318 57.0224 71.7157 55.4483 71.7157 53.8055V15.3243H6.14957ZM46.0624 26.894H44.0604C43.6599 26.894 43.2957 26.6616 43.1269 26.2983C42.9581 25.935 43.0153 25.5069 43.2737 25.2008L47.9544 19.6527C48.15 19.4208 48.4379 19.2871 48.7412 19.2871H58.1028C58.4062 19.2871 58.694 19.4208 58.8896 19.6527L63.5704 25.2008C63.8287 25.5069 63.8859 25.935 63.7172 26.2983C63.5484 26.6616 63.1841 26.894 62.7837 26.894H60.7818V35.7662C60.7818 36.3347 60.3209 36.7956 59.7524 36.7956H47.0918C46.5232 36.7956 46.0624 36.3347 46.0624 35.7662V26.894ZM59.7524 24.8352H60.5682L57.6244 21.3459H49.2196L46.2757 24.8352H59.7524ZM54.3949 34.7368H55.4218V31.8447H54.3949V34.7368ZM57.4806 34.7368H58.7229V26.894H48.1212V34.7368H52.336V30.8153C52.336 30.2468 52.7969 29.7859 53.3654 29.7859H56.4512C57.0197 29.7859 57.4806 30.2468 57.4806 30.8153V34.7368ZM49.0003 54.5503C48.0596 55.2091 46.326 55.5952 44.5785 55.5952C42.7774 55.5952 40.9909 55.185 40.0722 54.4887C39.4466 54.0144 39.1274 53.4116 39.1274 52.7343C39.1274 50.353 40.6549 48.3278 42.7832 47.5855C42.0091 47.0275 41.5054 46.1181 41.5054 45.0906C41.5054 43.3937 42.881 42.0178 44.5788 42.0178C46.2759 42.0178 47.6516 43.3937 47.6516 45.0906C47.6516 46.118 47.1479 47.0274 46.3741 47.5853C47.4385 47.9565 48.3525 48.6485 49.0004 49.5456C49.6484 48.6487 50.5624 47.9568 51.6266 47.5855C50.8526 47.0275 50.349 46.1181 50.349 45.0906C50.349 43.3937 51.7244 42.0178 53.4224 42.0178C55.1194 42.0178 56.4952 43.3937 56.4952 45.0906C56.4952 46.118 55.9915 47.0274 55.2177 47.5853C56.2821 47.9565 57.196 48.6485 57.8438 49.5456C58.4918 48.6487 59.4059 47.9568 60.4702 47.5855C59.6962 47.0275 59.1924 46.1181 59.1924 45.0906C59.1924 43.3937 60.5679 42.0178 62.2659 42.0178C63.9628 42.0178 65.3387 43.3937 65.3387 45.0906C65.3387 46.118 64.8349 47.0274 64.0612 47.5853C66.1896 48.3277 67.7166 50.3528 67.7166 52.7343C67.7166 53.4116 67.3974 54.0144 66.7719 54.4887C65.8532 55.185 64.0668 55.5952 62.2654 55.5952C60.5181 55.5952 58.7846 55.2091 57.8438 54.5503C56.9029 55.2091 55.1694 55.5952 53.4221 55.5952C51.6746 55.5952 49.941 55.2091 49.0003 54.5503ZM56.8144 52.7343C56.8144 50.8608 55.2959 49.3415 53.4224 49.3415C51.5488 49.3415 50.0297 50.8608 50.0297 52.7343C50.0297 52.7928 50.1053 52.8069 50.1594 52.848C50.3131 52.9644 50.5118 53.0587 50.7378 53.1418C51.4694 53.4112 52.4465 53.5363 53.4221 53.5363C54.3977 53.5363 55.3746 53.4112 56.1063 53.1418C56.3322 53.0587 56.531 52.9644 56.6847 52.848C56.7388 52.8069 56.8144 52.7928 56.8144 52.7343ZM61.2512 45.0906C61.2512 45.6512 61.7053 46.1053 62.2659 46.1053C62.8259 46.1053 63.2799 45.6511 63.2799 45.0906C63.2799 44.5308 62.8257 44.0766 62.2659 44.0766C61.7054 44.0766 61.2512 44.5306 61.2512 45.0906ZM58.8732 52.7343C58.8732 52.7928 58.9487 52.8069 59.0028 52.848C59.1565 52.9644 59.3553 53.0587 59.5812 53.1418C60.3129 53.4112 61.2899 53.5363 62.2654 53.5363C63.241 53.5363 64.2181 53.4112 64.9497 53.1418C65.1757 53.0587 65.3746 52.9644 65.5281 52.848C65.5824 52.8069 65.6578 52.7928 65.6578 52.7343C65.6578 50.8608 64.1393 49.3415 62.2659 49.3415C60.3924 49.3415 58.8732 50.8608 58.8732 52.7343ZM43.5643 45.0906C43.5643 45.6512 44.0184 46.1053 44.5788 46.1053C45.139 46.1053 45.5928 45.6511 45.5928 45.0906C45.5928 44.5308 45.1388 44.0766 44.5788 44.0766C44.0185 44.0766 43.5643 44.5306 43.5643 45.0906ZM47.9709 52.7343C47.9709 50.8608 46.4524 49.3415 44.5788 49.3415C42.7054 49.3415 41.1862 50.8608 41.1862 52.7343C41.1862 52.7928 41.2618 52.8069 41.3159 52.848C41.4696 52.9644 41.6682 53.0587 41.8943 53.1418C42.6259 53.4112 43.6029 53.5363 44.5785 53.5363C45.5541 53.5363 46.5312 53.4112 47.2628 53.1418C47.4888 53.0587 47.6875 52.9644 47.8412 52.848C47.8953 52.8069 47.9709 52.7928 47.9709 52.7343ZM52.4078 45.0906C52.4078 45.6512 52.8619 46.1053 53.4224 46.1053C53.9824 46.1053 54.4363 45.6511 54.4363 45.0906C54.4363 44.5308 53.9824 44.0766 53.4224 44.0766C52.8619 44.0766 52.4078 44.5306 52.4078 45.0906ZM6.14957 9.40973V13.2655H71.7157V9.40973V9.40531C71.7144 7.76296 71.0302 6.18943 69.8188 5.02796C68.5918 3.85134 66.9266 3.19267 65.1915 3.19164H65.1868H12.6784H12.6738C10.9385 3.19267 9.27339 3.85134 8.04633 5.02796C6.83501 6.18943 6.15074 7.76296 6.14957 9.40531V9.40973ZM54.3063 6.42634C55.3006 6.42634 56.1078 7.23384 56.1078 8.22855C56.1078 9.22325 55.3006 10.0308 54.3063 10.0308C53.3121 10.0308 52.5049 9.22325 52.5049 8.22855C52.5049 7.23384 53.3121 6.42634 54.3063 6.42634ZM60.436 6.42634C61.4303 6.42634 62.2375 7.23384 62.2375 8.22855C62.2375 9.22325 61.4303 10.0308 60.436 10.0308C59.4418 10.0308 58.6346 9.22325 58.6346 8.22855C58.6346 7.23384 59.4418 6.42634 60.436 6.42634ZM66.5656 6.42634C67.5599 6.42634 68.3671 7.23384 68.3671 8.22855C68.3671 9.22325 67.5599 10.0308 66.5656 10.0308C65.5713 10.0308 64.7641 9.22325 64.7641 8.22855C64.7641 7.23384 65.5713 6.42634 66.5656 6.42634ZM10.7257 58.5669L3.39766 69.1865C3.19221 69.4841 3.26751 69.8949 3.56516 70.1003L5.87574 71.6947C6.17295 71.8999 6.58427 71.8256 6.78854 71.5285L6.78957 71.5271L14.1177 60.9075C14.2874 60.6616 14.2654 60.3384 14.0847 60.1177C14.079 60.1109 14.0732 60.1041 14.0674 60.0974C14.0332 60.059 13.9941 60.0241 13.95 59.9937C13.95 59.9937 11.55 58.3449 11.5035 58.3269C11.4932 58.3231 11.4828 58.3194 11.4725 58.3158C11.2034 58.2269 10.8947 58.3221 10.7257 58.5669ZM17.8622 54.8537C20.131 55.9883 22.7734 56.4228 25.4604 55.93C32.0432 54.7227 36.4016 48.4068 35.1943 41.824C33.9871 35.2412 27.6712 30.8828 21.0884 32.09C14.5055 33.2972 10.1472 39.6133 11.3544 46.196C11.8472 48.883 13.191 51.1993 15.0568 52.9178C15.0624 52.9228 15.0678 52.9278 15.0732 52.933C15.9031 53.6946 16.8357 54.3381 17.8422 54.8437C17.849 54.8471 17.8556 54.8503 17.8622 54.8537ZM16.3066 50.9185C14.5594 49.1563 13.4762 46.7347 13.4629 44.0599C13.4622 44.0434 13.4619 44.0271 13.4619 44.0105C13.4619 38.5915 17.8553 34.198 23.2744 34.198C28.6934 34.198 33.0869 38.5915 33.0869 44.0105C33.0869 46.7093 31.9972 49.1534 30.234 50.9271C30.2274 50.9341 30.2206 50.9411 30.2138 50.948C28.4384 52.7234 25.985 53.8219 23.2744 53.8219C21.4607 53.8219 19.7619 53.3299 18.3041 52.4719C17.584 52.0483 16.9225 51.5352 16.3352 50.9481C16.3254 50.9384 16.3159 50.9286 16.3066 50.9185ZM29.6556 48.4158C30.521 47.1647 31.0281 45.6469 31.0281 44.0105C31.0281 39.7284 27.5565 36.2568 23.2744 36.2568C18.9924 36.2568 15.5207 39.7284 15.5207 44.0105L14.4935 45.0377C14.4927 45.0391 14.4924 45.0399 14.4924 45.0399L15.5218 44.0105C15.5218 45.6468 16.0285 47.1646 16.8937 48.4155C18.086 46.7096 19.9446 45.5044 22.0921 45.1772C20.3766 44.6683 19.1257 43.0802 19.1257 41.1994C19.1257 38.9078 20.9828 37.0496 23.2744 37.0496C25.5672 37.0496 27.4241 38.908 27.4241 41.1994C27.4241 43.0802 26.1732 44.6684 24.4571 45.1772C26.6046 45.5046 28.4635 46.7097 29.6556 48.4158ZM21.1846 41.1994C21.1846 42.3537 22.12 43.2891 23.2744 43.2891C24.4296 43.2891 25.3653 42.3538 25.3653 41.1994C25.3653 40.0447 24.4296 39.1084 23.2744 39.1084C22.1199 39.1084 21.1846 40.0449 21.1846 41.1994ZM19.5693 50.8224C20.6702 51.4222 21.9325 51.7631 23.2744 51.7631C25.1528 51.7631 26.8753 51.0953 28.2172 49.984C27.2249 48.2863 25.3825 47.1468 23.2744 47.1468C21.1663 47.1468 19.3247 48.2863 18.3319 49.984C18.7152 50.3013 19.1293 50.5825 19.5693 50.8224Z" fill="white"/>
</svg>
