<svg width="38" height="29" viewBox="0 0 38 29" fill="none" xmlns="http://www.w3.org/2000/svg">
<path d="M34.451 2.91407C36.5973 5.19253 37.7498 7.74968 37.7498 11.8949C37.7498 19.1853 32.6321 25.7211 25.186 28.9513L23.3262 26.0813C30.2748 22.3218 31.6327 17.4453 32.1756 14.3705C31.0569 14.9491 29.5923 15.1524 28.1567 15.0195C24.3975 14.6709 21.4348 11.5849 21.4348 7.74968C21.4348 3.72259 24.6994 0.458008 28.7265 0.458008C30.9621 0.458008 33.0998 1.47978 34.451 2.91407ZM13.6177 2.91407C15.764 5.19253 16.9165 7.74968 16.9165 11.8949C16.9165 19.1853 11.7987 25.7211 4.35273 28.9513L2.49296 26.0813C9.44137 22.3218 10.7994 17.4453 11.3422 14.3705C10.2235 14.9491 8.759 15.1524 7.32331 15.0195C3.56421 14.6709 0.601562 11.5849 0.601562 7.74968C0.601562 3.72259 3.86615 0.458008 7.89323 0.458008C10.1287 0.458008 12.2665 1.47978 13.6177 2.91407Z" fill="#002345"/>
</svg>
