<svg width="50" height="50" viewBox="0 0 50 50" fill="none" xmlns="http://www.w3.org/2000/svg">
<g clip-path="url(#clip0_82_1242)">
<path d="M49.2676 48.5029H44.1406V35.9306C45.5938 35.7195 46.9347 35.0503 47.9903 33.9938C49.2862 32.6989 50 30.9761 50 29.1426C50 26.6209 48.6314 24.4141 46.599 23.222C47.1215 22.7883 47.4258 22.1428 47.4258 21.4639C47.4258 20.2749 46.4976 19.2742 45.3125 19.1855L40.3155 18.8117C39.9121 18.7832 39.5607 19.0841 39.5305 19.4875C39.5003 19.8909 39.8028 20.2423 40.2062 20.2726L45.2032 20.6464C45.6281 20.6781 45.9609 21.0372 45.9609 21.4639C45.9609 21.9087 45.5854 22.2844 45.1416 22.2822H29.4711C29.4943 22.1662 29.5068 22.0465 29.5068 21.9238V19.4719L36.7929 20.0171C37.191 20.0459 37.5477 19.7472 37.5779 19.3413C37.6081 18.9379 37.3056 18.5865 36.9021 18.5562L36.128 18.4983L36.9389 17.7909C37.4745 18.2045 38.1953 18.3634 38.8759 18.2222C39.4875 18.0953 40.0131 17.7379 40.3558 17.2156C40.5059 16.987 40.613 16.7389 40.6753 16.4807L43.8649 15.9863C45.0126 15.8116 45.8186 14.7644 45.6891 13.6109C45.557 12.4359 44.4714 11.5551 43.3003 11.6877L35.9572 12.4791C35.7488 12.5021 35.549 12.5647 35.3595 12.6669L32.5707 14.1917C32.1073 12.4869 30.7288 11.1481 28.9341 10.7734L28.3778 10.657C29.3289 9.75869 29.9241 8.4875 29.9241 7.0792V3.00703C29.9241 1.3667 28.5896 0.0322266 26.9493 0.0322266H23.0505C21.4102 0.0322266 20.0757 1.3667 20.0757 3.00703V7.0792C20.0757 8.4876 20.6709 9.75869 21.6219 10.657L21.0658 10.7733C18.8604 11.2344 17.2596 13.2042 17.2596 15.4571V15.9551C16.5532 15.9993 15.8488 16.0638 15.1476 16.1448C14.5842 15.3665 13.6709 14.8591 12.6412 14.8591H8.27812L6.83838 13.9852C6.46885 13.7607 6.00498 13.7532 5.62852 13.9653C5.25068 14.178 5.01602 14.5798 5.01602 15.014V20.1928C5.01602 21.013 5.29492 21.7686 5.76152 22.3707C4.34609 22.5972 3.0415 23.2588 2.00947 24.2916C0.713672 25.5875 0 27.3103 0 29.1426C0 32.5854 2.54941 35.4431 5.85938 35.9291V40.4957C5.85938 40.9003 6.18721 41.2281 6.5918 41.2281C6.99639 41.2281 7.32422 40.9003 7.32422 40.4957V36.0029H42.6758V48.5029H7.32422V43.9138C7.32422 43.5092 6.99639 43.1814 6.5918 43.1814C6.18721 43.1814 5.85938 43.5092 5.85938 43.9138V48.5029H0.732422C0.327832 48.5029 0 48.8308 0 49.2354C0 49.6399 0.327832 49.9678 0.732422 49.9678H49.2676C49.6722 49.9678 50 49.6399 50 49.2354C50 48.8308 49.6722 48.5029 49.2676 48.5029ZM38.5784 16.788C38.5781 16.7881 38.5778 16.7881 38.5775 16.7882C38.0871 16.9517 37.5614 16.5658 37.4943 16.049L39.242 15.6864C39.3742 16.1725 39.0641 16.6261 38.5784 16.788ZM36.0584 13.9544C36.0776 13.944 36.0985 13.9373 36.1166 13.9354L43.4583 13.1441C43.8661 13.097 44.2374 13.4313 44.2374 13.8447C44.2374 14.1879 43.981 14.4862 43.6409 14.539L40.5846 15.0127C40.4935 14.7578 40.3242 14.5396 40.0939 14.3885C39.814 14.2047 39.4794 14.1413 39.1516 14.2091L36.99 14.6575C36.3132 14.7979 35.877 15.4628 36.0173 16.1396L36.0745 16.4155C36.0853 16.4673 36.0992 16.5175 36.1132 16.5677L34.0761 18.3448L29.4281 17.997C29.3923 17.8784 29.3451 17.7646 29.2869 17.6568L36.0584 13.9544ZM21.5406 3.00703C21.5406 2.17451 22.2181 1.49707 23.0506 1.49707H26.9494C27.7819 1.49707 28.4594 2.17451 28.4594 3.00703V4.34355L25.1141 4.72764C24.7291 4.77207 24.3378 4.71221 23.9831 4.55537L21.5406 3.475V3.00703ZM21.5406 7.0792V5.07666L23.3905 5.89502C23.9833 6.15732 24.6371 6.25684 25.2811 6.18281L28.4593 5.81797V7.0792C28.4593 8.98662 26.9074 10.5385 24.9999 10.5385C23.0924 10.5385 21.5406 8.98662 21.5406 7.0792ZM25.835 11.9311V12.2168C25.835 12.7698 25.3854 13.2198 24.832 13.2198C24.2795 13.2198 23.83 12.7699 23.83 12.2168V11.8617C24.2053 11.9535 24.5968 12.0033 24.9999 12.0033C25.2847 12.0033 25.5634 11.9776 25.835 11.9311ZM18.7246 15.4571C18.7246 13.8938 19.8354 12.5271 21.3658 12.2072L22.3651 11.9981V12.2168C22.3651 13.5776 23.4718 14.6847 24.833 14.6847C26.1933 14.6847 27.2998 13.5776 27.2998 12.2168V11.928L28.6345 12.2072C29.9986 12.4921 31.0167 13.579 31.2326 14.9233L27.9555 16.7151C25.8204 16.2727 23.6392 16.0015 21.4701 15.9108C20.5573 15.8725 19.6408 15.867 18.7246 15.891V15.4571ZM15.7383 19.3033V17.9676C15.7383 17.8275 15.7281 17.6898 15.7102 17.5546C17.5996 17.3558 19.5124 17.2949 21.4089 17.3743C23.5335 17.4631 25.6705 17.7308 27.7611 18.1699C27.9239 18.204 28.0421 18.3514 28.0421 18.5205V21.9238C28.0421 22.1214 27.8813 22.2822 27.6837 22.2822H26.8027C26.6459 22.2266 23.5766 21.4953 23.4005 21.4529C23.224 21.4104 23.0609 21.3341 22.9157 21.2264L20.3692 19.3359C19.8305 18.9358 19.1473 18.8001 18.4952 18.9634C17.8429 19.1266 17.3042 19.5681 17.0173 20.1747C16.6895 20.8676 16.754 21.6602 17.1329 22.2823H15.5509C15.2764 22.2823 15.0154 22.1898 14.8055 22.0275C15.3893 21.2745 15.7383 20.3294 15.7383 19.3033ZM26.7249 24.5794C26.5907 24.8629 26.27 25.017 25.9635 24.9474L25.3662 24.8103L25.7807 23.5336L26.2793 23.6538C26.548 23.7186 26.6733 23.9064 26.7241 24.0126C26.7747 24.1181 26.8418 24.3321 26.7249 24.5794ZM24.3523 23.1893L23.9329 24.4813L22.4254 24.1354C22.2718 24.1001 22.1269 24.0388 21.995 23.9531L18.6131 21.7576C18.2974 21.5524 18.1805 21.1413 18.3415 20.8011C18.4401 20.5925 18.6257 20.4407 18.8508 20.3843C19.0733 20.3285 19.31 20.3736 19.4961 20.512L22.0425 22.4025C22.3467 22.6283 22.688 22.7879 23.057 22.877L24.3523 23.1893ZM12.6414 16.3239C13.5413 16.3239 14.2734 17.0613 14.2734 17.9676V19.3033C14.2734 20.6941 13.3213 21.8651 12.0385 22.1918L12.0343 21.6483C12.0276 20.7909 11.3823 20.067 10.5334 19.9646L9.82881 19.8797C9.72549 19.8673 9.64238 19.789 9.62207 19.6849L8.96309 16.324H12.6414V16.3239ZM6.48076 15.4817L7.4165 16.0497L8.18447 19.9665C8.32734 20.6956 8.91768 21.2451 9.65332 21.3339L10.358 21.4188C10.4776 21.4332 10.5685 21.5367 10.5694 21.6596L10.5742 22.2822H8.54922C7.40801 22.2781 6.48076 21.3425 6.48076 20.1928V15.4817ZM43.1396 34.5381H6.86035C3.88525 34.5381 1.46484 32.1177 1.46484 29.1426C1.46484 27.7015 2.02607 26.3466 3.04551 25.3272C4.06367 24.3082 5.41846 23.7471 6.86035 23.7471H18.9876L21.1976 25.1818C21.4736 25.3609 21.7765 25.4892 22.0977 25.5629L25.6358 26.3748C26.592 26.5952 27.6209 26.1106 28.049 25.2056C28.2674 24.744 28.3108 24.2294 28.1809 23.7469H43.1396C46.1147 23.7469 48.5352 26.1673 48.5352 29.1424C48.5352 30.5844 47.974 31.9392 46.9545 32.9577C45.9364 33.977 44.5816 34.5381 43.1396 34.5381Z" fill="#81997E"/>
</g>
<defs>
<clipPath id="clip0_82_1242">
<rect width="50" height="50" fill="white"/>
</clipPath>
</defs>
</svg>
